<svg width="33" height="26" viewBox="0 0 33 26" fill="none" xmlns="http://www.w3.org/2000/svg">
<path fill-rule="evenodd" clip-rule="evenodd" d="M0 2C0 1.17157 0.671573 0.5 1.5 0.5H31.5C32.3284 0.5 33 1.17157 33 2C33 2.82843 32.3284 3.5 31.5 3.5H1.5C0.671573 3.5 0 2.82843 0 2Z" fill="white"/>
<path fill-rule="evenodd" clip-rule="evenodd" d="M0 13C0 12.1716 0.671573 11.5 1.5 11.5H31.5C32.3284 11.5 33 12.1716 33 13C33 13.8284 32.3284 14.5 31.5 14.5H1.5C0.671573 14.5 0 13.8284 0 13Z" fill="white"/>
<path fill-rule="evenodd" clip-rule="evenodd" d="M0 24C0 23.1716 0.671573 22.5 1.5 22.5H31.5C32.3284 22.5 33 23.1716 33 24C33 24.8284 32.3284 25.5 31.5 25.5H1.5C0.671573 25.5 0 24.8284 0 24Z" fill="white"/>
</svg>
